<svg version="1.1" viewBox="0.0 0.0 1920.0 1080.0" fill="none" stroke="none" stroke-linecap="square" stroke-miterlimit="10" xmlns:xlink="http://www.w3.org/1999/xlink" xmlns="http://www.w3.org/2000/svg"><clipPath id="p.0"><path d="m0 0l1920.0 0l0 1080.0l-1920.0 0l0 -1080.0z" clip-rule="nonzero"/></clipPath><g clip-path="url(#p.0)"><path fill="#000000" fill-opacity="0.0" d="m0 0l1920.0 0l0 1080.0l-1920.0 0z" fill-rule="evenodd"/><path fill="#000000" fill-opacity="0.0" d="m-157.40178 440.01575l2234.8032 0l0 287.2126l-2234.8032 0z" fill-rule="evenodd"/><path fill="#ffffff" d="m157.97426 657.39075q-15.484375 0 -12.65625 -13.3125q0.921875 -4.359375 3.421875 -10.015625q2.5 -5.671875 6.765625 -14.609375q4.765625 -9.34375 7.546875 -15.890625q2.796875 -6.5625 3.890625 -11.71875q2.875 -13.515625 -9.03125 -13.515625q-3.1875 0 -6.734375 0.796875l-31.8125 74.890625l-28.609375 0l53.875 -126.34375l30.25 -3.96875l-19.5 45.890625l1.59375 0q7.734375 0 15.4375 -5.359375q7.703125 -5.375 13.078125 -13.421875q5.390625 -8.046875 7.046875 -15.796875q1.9375 -9.140625 -2.28125 -15.0q-4.203125 -5.859375 -15.140625 -5.859375q-16.078125 0 -29.421875 5.765625q-13.34375 5.765625 -22.328125 16.6875q-8.96875 10.921875 -12.140625 25.828125q-1.5625 7.34375 -0.796875 10.234375q0.78125 2.875 0.703125 3.265625q-10.734375 0 -15.046875 -4.46875q-4.3125 -4.46875 -2.125 -14.796875q2.703125 -12.71875 15.6875 -24.734375q12.984375 -12.015625 30.859375 -19.46875q17.875 -7.453125 34.171875 -7.453125q14.890625 0 24.09375 4.375q9.203125 4.375 12.625 11.625q3.4375 7.25 1.609375 15.796875q-1.984375 9.328125 -9.734375 18.671875q-7.734375 9.328125 -18.9375 15.296875q7.09375 2.1875 9.09375 7.25q2.0 5.0625 0.390625 12.609375q-1.21875 5.765625 -3.984375 12.21875q-2.765625 6.453125 -7.375 16.0q-2.890625 6.15625 -5.5625 12.125q-2.65625 5.953125 -3.5 9.921875q-0.96875 4.5625 0.359375 8.140625q1.328125 3.578125 4.609375 4.96875q-12.84375 3.375 -20.390625 3.375zm61.65808 -2.1875q-14.703125 0 -21.21875 -7.640625q-6.515625 -7.65625 -3.0625 -23.9375q2.921875 -13.71875 11.78125 -30.203125q8.875 -16.484375 23.53125 -28.5q14.671875 -12.015625 33.343765 -12.015625q21.859375 0 17.8125 19.0625q-2.359375 11.125 -10.703125 20.46875q-8.34375 9.328125 -20.07814 15.0q-11.71875 5.65625 -23.8125 6.453125q-1.671875 5.953125 -2.09375 7.9375q-2.078125 9.734375 0.5625 13.21875q2.65625 3.46875 10.203125 3.46875q10.71875 0 19.421875 -4.953125q8.70314 -4.96875 20.000015 -15.109375l6.75 0q-29.85939 36.75 -62.437515 36.75zm11.21875 -50.859375q7.421875 -0.390625 15.09375 -5.15625q7.671875 -4.765625 13.29689 -12.109375q5.640625 -7.359375 7.359375 -15.5q1.734375 -8.15625 -3.234375 -8.15625q-7.140625 0 -16.656265 12.515625q-9.515625 12.515625 -15.859375 28.40625zm108.37779 50.859375q-12.125 0 -16.421875 -6.453125q-4.28125 -6.453125 -2.25 -15.984375q0.890625 -4.171875 3.0 -9.4375q2.109375 -5.265625 4.25 -10.234375q2.140625 -4.96875 2.84375 -6.359375q3.078125 -6.953125 5.890625 -13.703125q2.828125 -6.75 3.71875 -10.921875q2.15625 -10.140625 -5.0 -10.140625q-5.171875 0 -10.21875 5.078125q-5.046875 5.0625 -9.171875 13.203125l-27.046875 63.765625l-28.609375 0l42.171875 -99.328125l28.59375 0l-4.359375 10.328125q12.28125 -11.125 25.59375 -11.125q10.1249695 0 14.9062195 5.5625q4.78125 5.5625 2.375 16.890625q-1.234375 5.765625 -4.125 12.8125q-2.890625 7.046875 -7.609375 17.1875q-2.90625 6.15625 -5.4530945 12.015625q-2.53125 5.859375 -3.25 9.234375q-0.84375 3.96875 0.484375 6.15625q1.328125 2.1875 5.7030945 2.1875q5.953125 0 10.4375 -4.265625q4.484375 -4.28125 9.96875 -13.21875l8.34375 0q-12.015625 21.859375 -23.234375 29.3125q-11.2030945 7.4375 -21.53122 7.4375zm47.274567 0q-10.125 0 -13.6875 -6.15625q-3.5625 -6.15625 -1.40625 -16.28125q1.09375 -5.171875 3.421875 -10.53125l25.390625 -59.59375l-6.5625 0l3.28125 -7.953125l6.546875 0l11.796875 -27.421875l30.25 -3.96875q-3.390625 7.546875 -3.890625 8.9375q-2.578125 5.5625 -9.546875 22.453125l11.921875 0l-3.28125 7.953125l-11.90625 0l-25.390625 59.59375q-1.921875 4.359375 -2.46875 6.953125q-1.515625 7.140625 5.4375 7.140625q3.578125 0 5.296875 -0.59375q-6.421875 11.53125 -12.640625 15.5q-6.203125 3.96875 -12.5625 3.96875zm118.015686 21.453125q-7.359375 0 -12.671875 -1.1875q-5.3125 -1.1875 -8.40625 -5.765625q-3.09375 -4.5625 -1.078125 -14.09375q2.828125 -13.3125 15.640625 -35.75q12.828125 -22.453125 30.74997 -45.109375q-10.0625 0.59375 -16.328125 2.984375q-6.2655945 2.375 -9.1093445 7.34375q0.796875 0 1.265625 2.0q0.484375 1.984375 0.015625 4.15625q-0.765625 3.578125 -4.390625 5.671875q-3.609375 2.078125 -8.375 2.078125q-5.5625 0 -8.3125 -2.96875q-2.75 -2.984375 -1.578125 -8.546875q1.4375 -6.75 7.875 -12.3125q6.453125 -5.5625 16.484375 -8.84375q10.0468445 -3.28125 21.37497 -3.28125q4.171875 0 10.203125 0.59375q21.78125 -25.828125 43.4375 -42.21875q21.65625 -16.390625 38.15625 -16.390625q9.53125 0 15.09375 2.78125l-62.265625 146.21875l-28.609375 0l30.625 -72.109375q-6.625 -3.375 -12.453125 -4.96875q-5.828125 -1.59375 -12.65625 -2.1875q-16.5 24.4375 -29.1875 49.96875q-12.6718445 25.515625 -15.9218445 40.8125q-1.609375 7.5625 0.421875 11.125zm96.453094 -157.53125q-9.515625 4.578125 -21.390625 17.0q-11.875 12.40625 -24.375 30.078125q13.71875 2.78125 22.765625 6.953125l23.0 -54.03125zm122.20148 73.703125l-3.234375 -74.5q-15.25 5.375 -25.390625 16.59375q-10.125 11.21875 -13.578125 27.515625q-1.5625 7.34375 -0.796875 10.234375q0.78125 2.875 0.703125 3.265625q-10.734375 0 -15.046875 -4.46875q-4.3125 -4.46875 -2.125 -14.796875q2.703125 -12.71875 15.6875 -24.734375q12.984375 -12.015625 30.859375 -19.46875q17.875 -7.453125 34.171875 -7.453125q2.78125 0 7.84375 0.40625l2.1875 71.125l44.375 -70.53125l13.109375 0l-56.984375 86.8125l-26.109375 61.1875l-31.796875 0l26.125 -61.1875z" fill-rule="nonzero"/><path fill="#ffffff" d="m788.7469 655.2189q-11.40625 0 -17.34375 -7.796875q-5.9375 -7.8125 -2.40625 -24.40625q3.140625 -14.796875 12.5 -31.09375q9.375 -16.3125 23.46875 -27.609375q14.09375 -11.296875 30.296875 -11.296875q8.203125 0 11.609375 2.796875q3.40625 2.796875 2.421875 7.40625l-0.296875 1.390625l4.453125 -10.59375l28.796875 0l-28.859375 68.0q-1.421875 3.0 -2.15625 6.40625q-1.828125 8.59375 6.375 8.59375q5.59375 0 10.796875 -5.203125q5.21875 -5.203125 9.40625 -13.59375l8.390625 0q-11.984375 21.59375 -24.515625 29.296875q-12.53125 7.703125 -23.53125 7.703125q-8.40625 0 -12.515625 -4.703125q-4.09375 -4.703125 -3.1875 -13.703125q-7.546875 8.203125 -15.734375 13.3125q-8.171875 5.09375 -17.96875 5.09375zm17.125 -19.40625q5.0 0 10.890625 -4.6875q5.890625 -4.703125 9.4375 -12.90625l19.21875 -45.203125q0.546875 -2.59375 -0.921875 -5.09375q-1.46875 -2.5 -5.671875 -2.5q-8.0 0 -16.375 9.296875q-8.375 9.296875 -14.765625 22.40625q-6.375 13.09375 -8.5 23.09375q-2.125 10.0 0.171875 12.796875q2.3125 2.796875 6.515625 2.796875zm92.66882 19.40625q-14.796875 0 -21.359375 -7.703125q-6.5625 -7.703125 -3.078125 -24.09375q2.9375 -13.8125 11.96875 -30.40625q9.03125 -16.59375 23.6875 -28.6875q14.671875 -12.109375 33.28125 -12.109375q12.0 0 15.984375 5.203125q4.0 5.1875 2.3125 13.1875q-1.5 7.0 -5.3125 10.8125q-3.796875 3.796875 -8.40625 3.796875q-3.390625 0 -6.484375 -2.40625q3.796875 -6.59375 4.90625 -11.796875q0.8125 -3.796875 -0.125 -6.0q-0.921875 -2.203125 -3.734375 -2.203125q-6.0 0 -14.09375 9.8125q-8.078125 9.796875 -14.859375 23.796875q-6.765625 14.0 -9.140625 25.1875q-2.09375 9.8125 0.5625 13.3125q2.65625 3.5 10.265625 3.5q10.796875 0 19.546875 -5.0q8.765625 -5.0 20.140625 -15.203125l6.796875 0q-30.046875 37.0 -62.859375 37.0zm116.79993 0q-10.59375 0 -14.03125 -6.390625q-3.4375 -6.40625 -1.359375 -16.21875q0.890625 -4.1875 3.015625 -9.484375q2.125 -5.3125 4.28125 -10.3125q2.171875 -5.0 2.859375 -6.390625q3.09375 -7.0 5.9375 -13.796875q2.859375 -6.8125 3.75 -11.015625q2.171875 -10.1875 -5.03125 -10.1875q-4.796875 0 -9.640625 4.40625q-4.84375 4.390625 -8.765625 11.59375l-28.359375 66.59375l-28.796875 0l57.90625 -136.0l30.437561 -4.0l-21.453186 50.203125q12.328125 -11.0 25.734436 -11.0q10.1875 0 15.0 5.609375q4.8125 5.59375 2.390625 16.984375q-1.234375 5.796875 -4.140625 12.90625q-2.90625 7.09375 -7.671875 17.296875q-2.921875 6.203125 -5.484375 12.109375q-2.546875 5.890625 -3.265625 9.296875q-0.859375 4.0 0.46875 6.203125q1.34375 2.1875 5.75 2.1875q4.796875 0 6.84375 -1.203125q-3.359375 10.203125 -10.5625 15.40625q-7.203186 5.203125 -15.812561 5.203125z" fill-rule="nonzero"/><path fill="#ffffff" d="m1056.0189 655.20325q-10.125 0 -13.6875 -6.15625q-3.5625 -6.15625 -1.40625 -16.28125q1.09375 -5.171875 3.421875 -10.53125l25.390625 -59.59375l-6.5625 0l3.28125 -7.953125l6.546875 0l11.796875 -27.421875l30.25 -3.96875q-3.390625 7.546875 -3.890625 8.9375q-2.578125 5.5625 -9.546875 22.453125l11.921875 0l-3.28125 7.953125l-11.90625 0l-25.390625 59.59375q-1.921875 4.359375 -2.46875 6.953125q-1.515625 7.140625 5.4375 7.140625q3.578125 0 5.296875 -0.59375q-6.421875 11.53125 -12.640625 15.5q-6.203125 3.96875 -12.5625 3.96875zm136.07825 -111.25q-6.546875 0 -10.15625 -4.5625q-3.59375 -4.5625 -2.1875 -11.125q1.390625 -6.5625 6.953125 -11.21875q5.5625 -4.671875 12.109375 -4.671875q6.5625 0 10.234375 4.671875q3.671875 4.65625 2.28125 11.21875q-1.40625 6.5625 -7.046875 11.125q-5.625 4.5625 -12.1875 4.5625zm-37.140625 111.25q-9.546875 0 -14.140625 -5.953125q-4.59375 -5.96875 -2.0625 -17.875q1.0625 -4.96875 4.34375 -12.921875l27.0625 -63.765625l28.59375 0l-28.65625 67.546875q-1.421875 2.96875 -2.140625 6.359375q-0.84375 3.96875 0.6875 5.65625q1.53125 1.6875 5.890625 1.6875q5.765625 0 11.765625 -4.859375q6.0 -4.875 9.84375 -12.625l8.34375 0q-11.921875 21.453125 -25.078125 29.109375q-13.140625 7.640625 -24.453125 7.640625zm101.71301 0q-10.53125 0 -13.953125 -6.34375q-3.40625 -6.359375 -1.34375 -16.09375q0.890625 -4.171875 3.0 -9.4375q2.109375 -5.265625 4.25 -10.234375q2.140625 -4.96875 2.84375 -6.359375q3.078125 -6.953125 5.890625 -13.703125q2.828125 -6.75 3.71875 -10.921875q2.15625 -10.140625 -5.0 -10.140625q-5.171875 0 -10.21875 5.078125q-5.046875 5.0625 -9.171875 13.203125l-27.046875 63.765625l-28.609375 0l42.171875 -99.328125l28.59375 0l-4.359375 10.328125q12.28125 -11.125 25.59375 -11.125q10.125 0 14.90625 5.5625q4.78125 5.5625 2.375 16.890625q-1.234375 5.765625 -4.125 12.8125q-2.890625 7.046875 -7.609375 17.1875q-2.90625 6.15625 -5.453125 12.015625q-2.53125 5.859375 -3.25 9.234375q-0.84375 3.96875 0.484375 6.15625q1.328125 2.1875 5.703125 2.1875q4.765625 0 6.796875 -1.1875q-3.34375 10.125 -10.5 15.296875q-7.15625 5.15625 -15.6875 5.15625zm111.81409 1.984375q-22.453125 0 -30.578125 -11.3125q-8.109375 -11.328125 -2.53125 -37.546875q4.421875 -20.859375 16.578125 -44.890625q12.15625 -24.046875 31.40625 -41.234375q19.25 -17.1875 43.296875 -17.1875q14.890625 0 22.625 6.5625q7.75 6.5625 4.890625 20.0625q-1.828125 8.546875 -6.234375 13.421875q-4.40625 4.859375 -11.5625 4.859375q-7.15625 0 -10.234375 -5.171875q3.96875 -1.78125 7.890625 -7.140625q3.921875 -5.375 5.140625 -11.125q1.140625 -5.375 -1.03125 -8.75q-2.15625 -3.375 -8.5 -3.375q-10.53125 0 -23.140625 14.40625q-12.59375 14.40625 -23.109375 36.265625q-10.5 21.84375 -14.796875 42.09375q-3.21875 15.109375 0.25 23.0625q3.484375 7.9375 17.0 7.9375q11.71875 0 22.75 -5.15625q11.03125 -5.171875 20.21875 -14.71875l4.125 2.0q-7.609375 12.515625 -19.125 20.859375q-11.5 8.34375 -23.453125 12.21875q-11.9375 3.859375 -21.875 3.859375zm72.54468 46.5q-9.53125 0 -14.84375 -4.96875q-5.296875 -4.96875 -3.296875 -14.3125q2.359375 -11.125 13.390625 -18.671875q11.046875 -7.546875 25.703125 -11.921875l4.234375 -9.734375q-7.09375 6.359375 -13.5625 8.75q-6.46875 2.375 -12.625 2.375q-9.546875 0 -14.140625 -5.953125q-4.59375 -5.96875 -2.0625 -17.875q1.0625 -4.96875 4.34375 -12.921875l27.0625 -63.765625l28.59375 0l-28.65625 67.546875q-1.09375 2.375 -1.640625 4.96875q-1.859375 8.734375 4.09375 8.734375q5.171875 0 10.09375 -4.46875q4.921875 -4.46875 8.875 -11.828125l27.703125 -64.953125l28.609375 0l-38.84375 91.1875q10.375 -2.1875 20.65625 -3.78125l40.203125 -94.75l28.609375 0l-6.328125 14.890625q11.734375 -8.546875 25.046875 -8.546875q11.125 0 16.109375 7.359375q5.0 7.34375 1.453125 24.03125q-3.34375 15.703125 -11.3125 31.703125q-7.96875 15.984375 -21.28125 27.203125q-13.296875 11.21875 -31.171875 11.21875q-9.9375 0 -18.15625 -0.59375l-17.84375 41.921875l-31.53125 7.15625l21.171875 -50.0625q-10.015625 0.390625 -19.71875 2.171875l-5.984375 14.109375q-8.0625 19.265625 -19.34375 26.515625q-11.28125 7.265625 -23.609375 7.265625zm103.53125 -64.578125q3.015625 -0.1875 8.78125 -0.1875q9.53125 0 17.734375 -9.140625q8.203125 -9.140625 13.75 -21.75q5.5625 -12.625 7.890625 -23.546875q3.5 -16.484375 -6.421875 -16.484375q-3.578125 0 -7.796875 2.578125q-4.21875 2.578125 -7.96875 7.15625l-25.96875 61.375zm-104.796875 49.078125q3.375 0 7.515625 -4.578125q4.15625 -4.5625 7.765625 -13.109375l2.421875 -5.75q-20.984375 7.140625 -23.0625 16.875q-0.546875 2.59375 0.8125 4.578125q1.375 1.984375 4.546875 1.984375zm204.98694 -133.5l28.59375 0l-5.1875 12.3125q8.015625 -5.953125 14.15625 -9.125q6.140625 -3.1875 12.484375 -3.1875q6.359375 0 9.109375 4.375q2.75 4.359375 1.4375 10.53125q-1.21875 5.75 -5.921875 10.125q-4.703125 4.375 -11.46875 4.375q-4.359375 0 -5.40625 -2.078125q-1.046875 -2.09375 -1.0 -6.078125q-0.046875 -2.578125 -0.390625 -3.765625q-0.328125 -1.1875 -1.921875 -1.1875q-4.171875 0 -7.421875 1.6875q-3.234375 1.6875 -8.6875 5.859375l-31.9375 75.484375l-28.609375 0l42.171875 -99.328125zm59.491577 100.515625q-9.546875 0 -14.140625 -5.953125q-4.59375 -5.96875 -2.0625 -17.875q1.0625 -4.96875 4.34375 -12.921875l27.0625 -63.765625l28.59375 0l-28.65625 67.546875q-1.21875 2.96875 -1.765625 5.5625q-1.734375 8.140625 4.21875 8.140625q5.5625 0 10.53125 -4.671875q4.96875 -4.671875 9.078125 -12.8125l27.0625 -63.765625l28.609375 0l-28.671875 67.546875q-1.421875 2.96875 -2.140625 6.359375q-0.84375 3.96875 0.6875 5.65625q1.53125 1.6875 5.90625 1.6875q5.5625 0 10.640625 -4.765625q5.09375 -4.765625 9.171875 -12.71875l8.34375 0q-11.921875 21.453125 -24.375 29.109375q-12.453125 7.640625 -23.375 7.640625q-8.546875 0 -12.59375 -4.765625q-4.046875 -4.765625 -3.0625 -14.109375q-9.078125 10.9375 -17.375 14.90625q-8.28125 3.96875 -16.03125 3.96875zm103.29016 0q-9.53125 0 -15.3125 -3.671875q-5.765625 -3.671875 -7.703125 -9.53125q-1.9375 -5.859375 -0.578125 -12.21875q1.390625 -6.5625 5.5 -11.421875q4.109375 -4.875 8.953125 -7.0625q10.703125 -13.890625 19.484375 -28.09375q8.78125 -14.21875 17.453125 -30.703125l30.234375 -3.96875q-4.40625 25.421875 -8.3125 55.03125q-1.546875 11.90625 -2.6875 17.28125q-2.5625 12.109375 -10.375 19.859375q-7.796875 7.75 -17.5625 11.125q-9.75 3.375 -19.09375 3.375zm-3.015625 -15.6875q7.34375 0 13.234375 -4.375q5.90625 -4.375 7.984375 -14.109375q1.265625 -5.953125 2.34375 -16.6875q2.828125 -22.640625 3.875 -30.390625q-8.09375 15.703125 -24.078125 37.546875q4.078125 2.390625 3.109375 6.953125q-0.8125 3.78125 -3.9375 6.765625q-3.109375 2.96875 -6.890625 2.96875q-4.171875 0 -4.8125 -2.578125q-1.515625 7.15625 0.640625 10.53125q2.171875 3.375 8.53125 3.375z" fill-rule="nonzero"/></g></svg>