<svg version="1.1" viewBox="0.0 0.0 19200.0 10800.0" fill="none" stroke="none" stroke-linecap="square" stroke-miterlimit="10" xmlns:xlink="http://www.w3.org/1999/xlink" xmlns="http://www.w3.org/2000/svg"><clipPath id="p.0"><path d="m0 0l19200.0 0l0 10800.0l-19200.0 0l0 -10800.0z" clip-rule="nonzero"/></clipPath><g clip-path="url(#p.0)"><path fill="#000000" fill-opacity="0.0" d="m0 0l19200.0 0l0 10800.0l-19200.0 0z" fill-rule="evenodd"/><path fill="#000000" fill-opacity="0.0" d="m-1574.0178 4400.1577l22348.031 0l0 2872.2202l-22348.031 0z" fill-rule="evenodd"/><path fill="#ffffff" d="m1579.4998 6574.9233q-154.96875 0 -126.6875 -133.09375q9.296875 -43.71875 34.234375 -100.328125q24.953125 -56.625 67.796875 -146.01562q47.671875 -93.375 75.5 -158.9375q27.84375 -65.5625 38.828125 -117.21875q28.71875 -135.09375 -90.484375 -135.09375q-31.78125 0 -67.25 7.953125l-318.125 748.96875l-286.07806 0l538.74994 -1263.5156l302.46875 -39.734375l-194.89062 458.92188l15.890625 0q77.484375 0 154.4375 -53.640625q76.96875 -53.640625 130.8125 -134.09375q53.859375 -80.46875 70.328125 -157.9375q19.421875 -91.390625 -22.75 -150.0q-42.171875 -58.609375 -151.4375 -58.609375q-160.92188 0 -294.35938 57.625q-133.4375 57.609375 -223.21875 166.875q-89.765625 109.265625 -121.4375 258.26562q-15.625 73.5 -7.84375 102.3125q7.78125 28.796875 6.9375 32.78125q-107.265564 0 -150.42181 -44.703125q-43.140625 -44.703125 -21.171875 -148.01562q27.015625 -127.140625 156.85931 -247.32812q129.84375 -120.203125 308.57812 -194.6875q178.75 -74.5 341.65625 -74.5q149.0 0 241.03125 43.703125q92.03125 43.703125 126.28125 116.21875q34.25 72.515625 16.09375 157.9375q-19.84375 93.375 -97.296875 186.75q-77.453125 93.359375 -189.46875 152.96875q70.84375 21.84375 90.875 72.515625q20.03125 50.65625 3.984375 126.140625q-12.25 57.625 -39.875 122.1875q-27.625 64.5625 -73.71875 159.92188q-29.0 61.59375 -55.578125 121.1875q-26.578125 59.59375 -35.015625 99.328125q-9.71875 45.703125 3.53125 81.46875q13.265625 35.75 46.078125 49.65625q-128.35938 33.765625 -203.84375 33.765625zm616.52734 -21.84375q-147.01562 0 -212.21875 -76.484375q-65.1875 -76.484375 -30.5625 -239.39062q29.140625 -137.07812 117.828125 -301.96875q88.6875 -164.90625 235.42188 -285.09375q146.73438 -120.1875 333.48438 -120.1875q218.53125 0 177.98438 190.71875q-23.640625 111.25 -107.0625 204.625q-83.421875 93.375 -200.75 150.0q-117.328125 56.609375 -238.21875 64.5625q-16.640625 59.59375 -20.859375 79.453125q-20.6875 97.359375 5.6875 132.125q26.390625 34.765625 101.875 34.765625q107.28125 0 194.3125 -49.671875q87.046875 -49.671875 199.98438 -150.98438l67.546875 0q-298.64062 367.53125 -624.4531 367.53125zm112.0625 -508.57812q74.359375 -3.984375 151.04688 -51.65625q76.6875 -47.6875 133.03125 -121.1875q56.359375 -73.515625 73.671875 -154.96875q17.3125 -81.453125 -32.34375 -81.453125q-71.53125 0 -166.6875 125.171875q-95.140625 125.15625 -158.71875 284.09375zm1083.9072 508.57812q-121.1875 0 -164.09375 -64.5625q-42.890625 -64.578125 -22.625 -159.9375q8.859375 -41.71875 29.984375 -94.359375q21.140625 -52.640625 42.625 -102.3125q21.484375 -49.671875 28.40625 -63.578125q30.671875 -69.53125 58.9375 -137.07812q28.265625 -67.546875 37.125 -109.265625q21.53125 -101.3125 -49.984375 -101.3125q-51.65625 0 -102.15625 50.65625q-50.5 50.65625 -91.65625 132.10938l-270.64062 637.71875l-286.07812 0l421.73438 -993.3281l286.07812 0l-43.828125 103.3125q123.0 -111.265625 256.09375 -111.265625q101.328125 0 149.09375 55.640625q47.78125 55.625 23.71875 168.85938q-12.25 57.609375 -41.15625 128.14062q-28.890625 70.53125 -76.25 171.84375q-28.984375 61.578125 -54.359375 120.1875q-25.359375 58.609375 -32.546875 92.390625q-8.4375 39.734375 4.78125 61.59375q13.234375 21.84375 56.9375 21.84375q59.609375 0 104.453125 -42.71875q44.84375 -42.71875 99.609375 -132.10938l83.4375 0q-119.96875 218.53125 -232.15625 293.03125q-112.1875 74.5 -215.48438 74.5zm472.82373 0q-101.328125 0 -136.92188 -61.578125q-35.578125 -61.59375 -14.03125 -162.92188q10.96875 -51.640625 34.296875 -105.28125l253.82812 -596.0l-65.546875 0l32.78125 -79.46875l65.5625 0l117.85962 -274.15625l302.46875 -39.734375q-33.921875 75.484375 -38.859375 89.40625q-25.734375 55.625 -95.390625 224.48438l119.1875 0l-32.78125 79.46875l-119.203125 0l-253.82837 596.0q-19.234375 43.703125 -24.71875 69.53125q-15.203125 71.515625 54.328125 71.515625q35.76587 0 52.92212 -5.953125q-64.218994 115.21875 -126.312744 154.95312q-62.078125 39.734375 -125.640625 39.734375zm1180.156 214.5625q-73.515625 0 -126.609375 -11.921875q-53.09375 -11.921875 -84.109375 -57.625q-31.0 -45.6875 -10.734375 -141.04688q28.296875 -133.10938 156.46875 -357.59375q128.17188 -224.5 307.4375 -450.96875q-100.609375 5.953125 -163.29688 29.796875q-62.671875 23.84375 -91.09375 73.5q7.9375 0 12.65625 19.875q4.71875 19.859375 0.078125 41.71875q-7.59375 35.75 -43.828125 56.625q-36.21875 20.859375 -83.90625 20.859375q-55.625 0 -83.0625 -29.796875q-27.4375 -29.8125 -15.609375 -85.4375q14.34375 -67.546875 78.8125 -123.171875q64.484375 -55.625 164.82812 -88.40625q100.34375 -32.78125 213.57812 -32.78125q41.71875 0 102.046875 5.96875q217.79688 -258.26562 434.40625 -422.15625q216.60938 -163.90625 381.5 -163.90625q95.375 0 151.04688 27.8125l-622.7031 1462.1719l-286.07812 0l306.25 -721.15625q-66.3125 -33.765625 -124.53125 -49.65625q-58.203125 -15.90625 -126.46875 -21.859375q-165.1875 244.35938 -291.95312 499.64062q-126.765625 255.28125 -159.28125 408.25q-16.046875 75.5 4.15625 111.265625zm964.625 -1575.4219q-95.125 45.6875 -213.90625 169.85938q-118.765625 124.15625 -243.76562 300.96875q137.125 27.828125 227.59375 69.546875l230.07812 -540.375zm1222.082 737.0469l-32.375 -745.0q-152.4375 53.640625 -253.78125 165.89062q-101.34375 112.25 -135.96875 275.15625q-15.625 73.5 -7.84375 102.3125q7.78125 28.796875 6.9375 32.78125q-107.265625 0 -150.42188 -44.703125q-43.141113 -44.703125 -21.171875 -148.01562q27.015625 -127.140625 156.85938 -247.32812q129.84375 -120.203125 308.57812 -194.6875q178.75 -74.5 341.65625 -74.5q27.8125 0 78.625 3.96875l21.671875 711.21875l443.92188 -705.2656l131.125 0l-569.9375 868.1719l-261.1875 611.8906l-317.85938 0l261.17188 -611.8906z" fill-rule="nonzero"/><path fill="#ffffff" d="m7887.3945 6553.1577q-114.0 0 -173.42188 -78.0q-59.421875 -78.0 -24.140625 -244.0q31.453125 -148.0 125.09375 -311.0q93.65625 -163.0 234.67188 -276.0q141.03125 -113.0 303.03125 -113.0q82.0 0 116.046875 28.0q34.046875 28.0 24.265625 74.0l-2.96875 14.0l44.53125 -106.0l288.0 0l-288.54688 680.0q-14.375 30.0 -21.59375 64.0q-18.28125 86.0 63.71875 86.0q56.0 0 108.046875 -52.0q52.046875 -52.0 93.90625 -136.0l84.0 0q-119.90625 216.0 -245.28125 293.0q-125.359375 77.0 -235.35938 77.0q-84.0 0 -125.015625 -47.0q-41.015625 -47.0 -31.875 -137.0q-75.4375 82.0 -157.28125 133.0q-81.828125 51.0 -179.82812 51.0zm171.23438 -194.0q50.0 0 108.984375 -47.0q59.0 -47.0 94.421875 -129.0l192.07812 -452.0q5.53125 -26.0 -9.15625 -51.0q-14.6875 -25.0 -56.6875 -25.0q-80.0 0 -163.78125 93.0q-83.765625 93.0 -147.60938 224.0q-63.84375 131.0 -85.09375 231.0q-21.25 100.0 1.796875 128.0q23.046875 28.0 65.046875 28.0zm926.7656 194.0q-148.0 0 -213.64062 -77.0q-65.625 -77.0 -30.765625 -241.0q29.328125 -138.0 119.609375 -304.0q90.28125 -166.0 237.0 -287.0q146.71875 -121.0 332.71875 -121.0q120.0 0 159.95312 52.0q39.953125 52.0 22.9375 132.0q-14.875 70.0 -52.953125 108.0q-38.078125 38.0 -84.078125 38.0q-34.0 0 -64.890625 -24.0q38.03125 -66.0 49.078125 -118.0q8.078125 -38.0 -1.25 -60.0q-9.328125 -22.0 -37.328125 -22.0q-60.0 0 -140.82812 98.0q-80.828125 98.0 -148.59375 238.0q-67.75 140.0 -91.546875 252.0q-20.84375 98.0 5.71875 133.0q26.5625 35.0 102.5625 35.0q108.0 0 195.625 -50.0q87.640625 -50.0 201.3125 -152.0l68.0 0q-300.64062 370.0 -628.6406 370.0zm1168.0 0q-106.0 0 -140.40625 -64.0q-34.390625 -64.0 -13.5625 -162.0q8.9375 -42.0 30.1875 -95.0q21.265625 -53.0 42.890625 -103.0q21.640625 -50.0 28.609375 -64.0q30.890625 -70.0 59.34375 -138.0q28.453125 -68.0 37.375 -110.0q21.6875 -102.0 -50.3125 -102.0q-48.0 0 -96.359375 44.0q-48.359375 44.0 -87.65625 116.0l-283.5625 666.0l-288.0 0l579.0781 -1360.0l304.5 -40.0l-214.70312 502.0q123.375 -110.0 257.375 -110.0q102.0 0 150.09375 56.0q48.109375 56.0 23.875 170.0q-12.328125 58.0 -41.421875 129.0q-29.09375 71.0 -76.765625 173.0q-29.1875 62.0 -54.734375 121.0q-25.53125 59.0 -32.75 93.0q-8.515625 40.0 4.8125 62.0q13.328125 22.0 57.328125 22.0q48.0 0 68.546875 -12.0q-33.671875 102.0 -105.734375 154.0q-72.046875 52.0 -158.04688 52.0z" fill-rule="nonzero"/><path fill="#ffffff" d="m10560.16 6553.0796q-101.328125 0 -136.92188 -61.578125q-35.578125 -61.59375 -14.03125 -162.92188q10.96875 -51.640625 34.296875 -105.28125l253.82812 -596.0l-65.546875 0l32.78125 -79.46875l65.5625 0l117.859375 -274.15625l302.46875 -39.734375q-33.921875 75.484375 -38.859375 89.40625q-25.734375 55.625 -95.390625 224.48438l119.1875 0l-32.78125 79.46875l-119.203125 0l-253.82812 596.0q-19.234375 43.703125 -24.71875 69.53125q-15.203125 71.515625 54.328125 71.515625q35.765625 0 52.921875 -5.953125q-64.21875 115.21875 -126.3125 154.95312q-62.078125 39.734375 -125.640625 39.734375zm1360.9062 -1112.5312q-65.546875 0 -101.53125 -45.6875q-35.984375 -45.703125 -22.046875 -111.25q13.9375 -65.5625 69.546875 -112.25q55.625 -46.6875 121.171875 -46.6875q65.5625 0 102.328125 46.6875q36.765625 46.6875 22.828125 112.25q-13.9375 65.546875 -70.34375 111.25q-56.390625 45.6875 -121.953125 45.6875zm-371.5625 1112.5312q-95.359375 0 -141.29688 -59.59375q-45.9375 -59.609375 -20.59375 -178.8125q10.546875 -49.65625 43.34375 -129.125l270.64062 -637.71875l286.07812 0l-286.625 675.46875q-14.265625 29.796875 -21.453125 63.5625q-8.4375 39.734375 6.84375 56.625q15.28125 16.890625 58.984375 16.890625q57.609375 0 117.609375 -48.671875q60.015625 -48.671875 98.359375 -126.15625l83.4375 0q-119.109375 214.5625 -250.59375 291.04688q-131.48438 76.484375 -244.73438 76.484375zm1017.1709 0q-105.296875 0 -139.46875 -63.5625q-34.171875 -63.578125 -13.46875 -160.9375q8.859375 -41.71875 29.984375 -94.359375q21.140625 -52.640625 42.625 -102.3125q21.484375 -49.671875 28.40625 -63.578125q30.671875 -69.53125 58.9375 -137.07812q28.265625 -67.546875 37.125 -109.265625q21.53125 -101.3125 -49.984375 -101.3125q-51.65625 0 -102.15625 50.65625q-50.5 50.65625 -91.65625 132.10938l-270.64062 637.71875l-286.07812 0l421.73438 -993.3281l286.07812 0l-43.828125 103.3125q123.0 -111.265625 256.09375 -111.265625q101.328125 0 149.09375 55.640625q47.78125 55.625 23.71875 168.85938q-12.25 57.609375 -41.15625 128.14062q-28.890625 70.53125 -76.25 171.84375q-28.984375 61.578125 -54.359375 120.1875q-25.359375 58.609375 -32.546875 92.390625q-8.4375 39.734375 4.78125 61.59375q13.234375 21.84375 56.9375 21.84375q47.6875 0 68.09375 -11.921875q-33.453125 101.3125 -105.015625 152.96875q-71.5625 51.65625 -157.0 51.65625zm1118.25 19.859375q-224.5 0 -305.73438 -113.234375q-81.21875 -113.234375 -25.46875 -375.48438q44.34375 -208.59375 165.95312 -448.96875q121.625 -240.39062 314.09375 -412.23438q192.48438 -171.84375 432.875 -171.84375q149.0 0 226.4375 65.5625q77.453125 65.546875 48.75 200.64062q-18.15625 85.421875 -62.28125 134.09375q-44.125 48.671875 -115.640625 48.671875q-71.515625 0 -102.25 -51.640625q39.546875 -17.890625 78.765625 -71.515625q39.21875 -53.640625 51.453125 -111.265625q11.40625 -53.640625 -10.21875 -87.40625q-21.625 -33.78125 -85.203125 -33.78125q-105.28125 0 -231.26562 144.04688q-125.96875 144.03125 -231.03125 362.5625q-105.046875 218.53125 -148.125 421.17188q-32.09375 150.98438 2.671875 230.45312q34.765625 79.453125 169.85938 79.453125q117.203125 0 227.51562 -51.640625q110.3125 -51.65625 202.10938 -147.01562l41.453125 19.859375q-76.25 125.15625 -191.34375 208.60938q-115.078125 83.4375 -234.5625 122.171875q-119.484375 38.734375 -218.8125 38.734375zm725.6494 464.875q-95.359375 0 -148.39062 -49.671875q-53.015625 -49.65625 -33.171875 -143.03125q23.65625 -111.25 134.0625 -186.75q110.40625 -75.484375 256.78125 -119.1875l42.546875 -97.34375q-71.109375 63.5625 -135.78125 87.40625q-64.671875 23.84375 -126.265625 23.84375q-95.359375 0 -141.29688 -59.59375q-45.9375 -59.609375 -20.59375 -178.8125q10.546875 -49.65625 43.34375 -129.125l270.64062 -637.71875l286.07812 0l-286.625 675.46875q-11.015625 23.828125 -16.5 49.65625q-18.59375 87.421875 41.0 87.421875q51.65625 0 100.890625 -44.703125q49.234375 -44.703125 88.703125 -118.203125l277.15625 -649.6406l286.07812 0l-388.51562 911.875q103.96875 -21.859375 206.6875 -37.75l402.07812 -947.625l286.07812 0l-63.453125 149.0q117.484375 -85.4375 250.59375 -85.4375q111.25 0 161.1875 73.515625q49.9375 73.5 14.46875 240.375q-33.359375 156.95312 -113.046875 316.875q-79.6875 159.92188 -212.8125 272.17188q-133.125 112.25 -311.92188 112.25q-99.34375 0 -181.51562 -5.96875l-178.48438 419.1875l-315.1875 71.515625l211.6875 -500.625q-100.171875 3.96875 -197.34375 21.84375l-59.78125 141.0625q-80.703125 192.70312 -193.45312 265.20312q-112.75 72.515625 -235.92188 72.515625zm1035.2031 -645.65625q30.21875 -1.984375 87.828125 -1.984375q95.359375 0 177.35938 -91.390625q82.0 -91.390625 137.625 -217.53125q55.640625 -126.15625 78.859375 -235.42188q35.046875 -164.89062 -64.296875 -164.89062q-35.75 0 -78.0 25.828125q-42.25 25.828125 -79.765625 71.515625l-259.60938 613.875zm-1047.9688 490.70312q33.78125 0 75.28125 -45.703125q41.5 -45.6875 77.53125 -131.10938l24.171875 -57.609375q-209.90625 71.515625 -230.59375 168.85938q-5.5 25.828125 8.15625 45.6875q13.671875 19.875 45.453125 19.875zm2049.9102 -1335.0312l286.07812 0l-52.015625 123.171875q80.21875 -59.59375 141.60938 -91.375q61.390625 -31.796875 124.96875 -31.796875q63.5625 0 91.03125 43.703125q27.46875 43.703125 14.375 105.296875q-12.25 57.609375 -59.296875 101.328125q-47.03125 43.703125 -114.578125 43.703125q-43.703125 0 -54.171875 -20.859375q-10.46875 -20.859375 -9.96875 -60.59375q-0.46875 -25.828125 -3.890625 -37.75q-3.421875 -11.921875 -19.3125 -11.921875q-41.71875 0 -74.125 16.890625q-32.390625 16.875 -86.953125 58.609375l-319.40625 754.9219l-286.07812 0l421.73438 -993.3281zm594.8887 1005.25q-95.359375 0 -141.29688 -59.59375q-45.9375 -59.609375 -20.59375 -178.8125q10.546875 -49.65625 43.34375 -129.125l270.64062 -637.71875l286.07812 0l-286.625 675.46875q-12.28125 29.796875 -17.78125 55.625q-17.3125 81.453125 42.28125 81.453125q55.625 0 105.28125 -46.6875q49.65625 -46.6875 90.828125 -128.14062l270.64062 -637.71875l286.07812 0l-286.60938 675.46875q-14.28125 29.796875 -21.46875 63.5625q-8.4375 39.734375 6.84375 56.625q15.28125 16.890625 58.984375 16.890625q55.625 0 106.484375 -47.671875q50.859375 -47.6875 91.609375 -127.15625l83.4375 0q-119.125 214.5625 -243.65625 291.04688q-124.515625 76.484375 -233.78125 76.484375q-85.4375 0 -125.96875 -47.671875q-40.515625 -47.6875 -30.609375 -141.0625q-90.765625 109.265625 -173.71875 149.0q-82.9375 39.734375 -160.42188 39.734375zm1033.0742 0q-95.359375 0 -153.10938 -36.75q-57.75 -36.765625 -77.078125 -95.359375q-19.34375 -58.609375 -5.828125 -122.1875q13.9375 -65.5625 55.078125 -114.234375q41.140625 -48.671875 89.484375 -70.515625q107.046875 -139.07812 194.84375 -281.10938q87.8125 -142.04688 174.51562 -306.95312l302.48438 -39.734375q-44.140625 254.29688 -83.21875 550.3125q-15.390625 119.203125 -26.796875 172.84375q-25.75 121.1875 -103.8125 198.67188q-78.046875 77.46875 -175.625 111.25q-97.5625 33.765625 -190.9375 33.765625zm-30.21875 -156.95312q73.5 0 132.45312 -43.703125q58.96875 -43.703125 79.65625 -141.04688q12.671875 -59.609375 23.546875 -166.875q28.265625 -226.48438 38.78125 -303.96875q-81.046875 156.95312 -240.73438 375.48438q40.625 23.84375 30.921875 69.53125q-8.03125 37.75 -39.203125 67.546875q-31.15625 29.796875 -68.90625 29.796875q-41.71875 0 -48.140625 -25.828125q-15.203125 71.515625 6.421875 105.296875q21.625 33.765625 85.203125 33.765625z" fill-rule="nonzero"/></g></svg>